<svg width="31" height="30" viewBox="0 0 31 30" fill="none" xmlns="http://www.w3.org/2000/svg">
<path id="Vector" d="M11.5772 11C11.5792 10.237 11.809 9.49169 12.2377 8.85823C12.6663 8.22477 13.2745 7.73158 13.9855 7.44096C14.6964 7.15034 15.4783 7.07532 16.2322 7.22539C16.9861 7.37546 17.6782 7.74387 18.2212 8.2841C18.7643 8.82433 19.1337 9.51213 19.283 10.2606C19.4323 11.0091 19.3547 11.7847 19.06 12.4895C18.7652 13.1942 18.2667 13.7965 17.6272 14.2202C16.9877 14.6439 16.236 14.87 15.4671 14.87C14.9551 14.8713 14.4478 14.7721 13.9746 14.5779C13.5014 14.3838 13.0716 14.0986 12.71 13.7388C12.3484 13.3791 12.0621 12.9519 11.8677 12.4818C11.6733 12.0117 11.5745 11.5081 11.5772 11ZM25.6152 23.3V22.08C25.6156 20.8168 25.3391 19.5686 24.8048 18.4221C24.2706 17.2755 23.4914 16.258 22.5214 15.44C22.4355 15.3106 22.3204 15.2028 22.1854 15.1251C22.0503 15.0473 21.8989 15.0018 21.743 14.9921C21.5872 14.9824 21.4312 15.0087 21.2874 15.0691C21.1436 15.1294 21.0159 15.2221 20.9143 15.3398C20.8128 15.4575 20.7402 15.597 20.7023 15.7473C20.6643 15.8976 20.6621 16.0546 20.6958 16.2059C20.7295 16.3572 20.7981 16.4986 20.8963 16.6191C20.9946 16.7395 21.1196 16.8357 21.2617 16.9C22.0173 17.5388 22.624 18.3329 23.0398 19.2272C23.4557 20.1216 23.6708 21.095 23.6702 22.08V25.21C21.3442 27.0636 18.4503 28.0739 15.4671 28.0739C12.4839 28.0739 9.59002 27.0636 7.26401 25.21V22.08C7.27023 20.6516 7.72761 19.261 8.57182 18.104C9.41603 16.947 10.6046 16.0817 11.9702 15.63C13.138 16.4986 14.5909 16.9022 16.0434 16.7616C17.4959 16.621 18.8429 15.9463 19.8194 14.8702C20.796 13.794 21.3315 12.3943 21.3207 10.9461C21.3099 9.498 20.7536 8.10628 19.7611 7.04457C18.7686 5.98287 17.4117 5.32801 15.9573 5.20875C14.5028 5.08948 13.0561 5.51444 11.9014 6.40007C10.7467 7.2857 9.9677 8.56793 9.71749 9.99465C9.46728 11.4214 9.76399 12.8894 10.5493 14.11C8.99345 14.8017 7.67214 15.9247 6.74427 17.344C5.8164 18.7632 5.32148 20.4183 5.31905 22.11V23.36C3.96916 21.7441 3.03098 19.8296 2.58374 17.7781C2.13651 15.7266 2.19336 13.5985 2.74949 11.5734C3.30562 9.54836 4.3447 7.68584 5.77896 6.14316C7.21323 4.60049 9.00056 3.42297 10.99 2.71006C12.9794 1.99716 15.1126 1.7698 17.2092 2.0472C19.3058 2.32459 21.3044 3.09859 23.0361 4.30382C24.7678 5.50905 26.1818 7.11012 27.1586 8.9718C28.1355 10.8335 28.6465 12.9011 28.6485 15C28.6512 18.0434 27.5777 20.9913 25.6152 23.33V23.3ZM15.4671 0C12.4774 0 9.55482 0.879734 7.06896 2.52796C4.5831 4.17618 2.64561 6.51886 1.5015 9.25975C0.35738 12.0006 0.058027 15.0166 0.641292 17.9264C1.22456 20.8361 2.66424 23.5088 4.77829 25.6066C6.89234 27.7044 9.5858 29.133 12.5181 29.7118C15.4503 30.2906 18.4897 29.9935 21.2519 28.8582C24.014 27.7229 26.3748 25.8003 28.0358 23.3335C29.6968 20.8668 30.5834 17.9667 30.5834 15C30.5834 11.0218 28.9908 7.20644 26.1559 4.3934C23.3211 1.58035 19.4762 0 15.4671 0Z" fill="#005D85"/>
</svg>
